<mxfile host="app.diagrams.net" agent="Mozilla/5.0 (Windows NT 10.0; Win64; x64; rv:130.0) Gecko/20100101 Firefox/130.0" version="24.7.6">
  <diagram name="Page-1" id="iFzpvZdFHotuhSdWt_Mr">
    <mxGraphModel dx="1050" dy="626" grid="1" gridSize="10" guides="1" tooltips="1" connect="1" arrows="1" fold="1" page="1" pageScale="1" pageWidth="850" pageHeight="1100" math="0" shadow="0">
      <root>
        <mxCell id="0" />
        <mxCell id="1" parent="0" />
        <mxCell id="CnuzjfT2MIIAcX5FWLCS-3" style="edgeStyle=orthogonalEdgeStyle;rounded=0;orthogonalLoop=1;jettySize=auto;html=1;exitX=0.855;exitY=0.855;exitDx=0;exitDy=0;exitPerimeter=0;" edge="1" parent="1" source="CnuzjfT2MIIAcX5FWLCS-1" target="CnuzjfT2MIIAcX5FWLCS-2">
          <mxGeometry relative="1" as="geometry" />
        </mxCell>
        <mxCell id="CnuzjfT2MIIAcX5FWLCS-1" value="Output welcome message" style="strokeWidth=2;html=1;shape=mxgraph.flowchart.start_1;whiteSpace=wrap;" vertex="1" parent="1">
          <mxGeometry x="130" y="90" width="100" height="60" as="geometry" />
        </mxCell>
        <mxCell id="CnuzjfT2MIIAcX5FWLCS-6" style="edgeStyle=orthogonalEdgeStyle;rounded=0;orthogonalLoop=1;jettySize=auto;html=1;exitX=0;exitY=0.5;exitDx=0;exitDy=0;exitPerimeter=0;" edge="1" parent="1" source="CnuzjfT2MIIAcX5FWLCS-2" target="CnuzjfT2MIIAcX5FWLCS-4">
          <mxGeometry relative="1" as="geometry" />
        </mxCell>
        <mxCell id="CnuzjfT2MIIAcX5FWLCS-7" style="edgeStyle=orthogonalEdgeStyle;rounded=0;orthogonalLoop=1;jettySize=auto;html=1;exitX=1;exitY=0.5;exitDx=0;exitDy=0;exitPerimeter=0;entryX=0.75;entryY=0;entryDx=0;entryDy=0;" edge="1" parent="1" source="CnuzjfT2MIIAcX5FWLCS-2" target="CnuzjfT2MIIAcX5FWLCS-5">
          <mxGeometry relative="1" as="geometry" />
        </mxCell>
        <mxCell id="CnuzjfT2MIIAcX5FWLCS-2" value="Check if pet is checked in" style="strokeWidth=2;html=1;shape=mxgraph.flowchart.decision;whiteSpace=wrap;" vertex="1" parent="1">
          <mxGeometry x="270" y="170" width="100" height="100" as="geometry" />
        </mxCell>
        <mxCell id="CnuzjfT2MIIAcX5FWLCS-4" value="Yes it is" style="shape=parallelogram;html=1;strokeWidth=2;perimeter=parallelogramPerimeter;whiteSpace=wrap;rounded=1;arcSize=12;size=0.23;" vertex="1" parent="1">
          <mxGeometry x="130" y="280" width="100" height="60" as="geometry" />
        </mxCell>
        <mxCell id="CnuzjfT2MIIAcX5FWLCS-9" style="edgeStyle=orthogonalEdgeStyle;rounded=0;orthogonalLoop=1;jettySize=auto;html=1;exitX=0.5;exitY=1;exitDx=0;exitDy=0;entryX=0.5;entryY=0;entryDx=0;entryDy=0;" edge="1" parent="1" source="CnuzjfT2MIIAcX5FWLCS-5" target="CnuzjfT2MIIAcX5FWLCS-8">
          <mxGeometry relative="1" as="geometry" />
        </mxCell>
        <mxCell id="CnuzjfT2MIIAcX5FWLCS-5" value="No it isnt" style="shape=parallelogram;html=1;strokeWidth=2;perimeter=parallelogramPerimeter;whiteSpace=wrap;rounded=1;arcSize=12;size=0.23;" vertex="1" parent="1">
          <mxGeometry x="390" y="280" width="100" height="60" as="geometry" />
        </mxCell>
        <mxCell id="CnuzjfT2MIIAcX5FWLCS-27" style="edgeStyle=orthogonalEdgeStyle;rounded=0;orthogonalLoop=1;jettySize=auto;html=1;exitX=1;exitY=0.5;exitDx=0;exitDy=0;" edge="1" parent="1" source="CnuzjfT2MIIAcX5FWLCS-8" target="CnuzjfT2MIIAcX5FWLCS-26">
          <mxGeometry relative="1" as="geometry" />
        </mxCell>
        <mxCell id="CnuzjfT2MIIAcX5FWLCS-8" value="&lt;div&gt;Ask user for information on pet&lt;/div&gt;" style="rounded=1;whiteSpace=wrap;html=1;absoluteArcSize=1;arcSize=14;strokeWidth=2;" vertex="1" parent="1">
          <mxGeometry x="390" y="400" width="100" height="100" as="geometry" />
        </mxCell>
        <mxCell id="CnuzjfT2MIIAcX5FWLCS-16" style="edgeStyle=orthogonalEdgeStyle;rounded=0;orthogonalLoop=1;jettySize=auto;html=1;exitX=0.5;exitY=1;exitDx=0;exitDy=0;exitPerimeter=0;entryX=0.5;entryY=0;entryDx=0;entryDy=0;" edge="1" parent="1" source="CnuzjfT2MIIAcX5FWLCS-11" target="CnuzjfT2MIIAcX5FWLCS-15">
          <mxGeometry relative="1" as="geometry" />
        </mxCell>
        <mxCell id="CnuzjfT2MIIAcX5FWLCS-20" style="edgeStyle=orthogonalEdgeStyle;rounded=0;orthogonalLoop=1;jettySize=auto;html=1;exitX=0.5;exitY=1;exitDx=0;exitDy=0;exitPerimeter=0;entryX=0.5;entryY=0;entryDx=0;entryDy=0;" edge="1" parent="1" source="CnuzjfT2MIIAcX5FWLCS-11" target="CnuzjfT2MIIAcX5FWLCS-19">
          <mxGeometry relative="1" as="geometry" />
        </mxCell>
        <mxCell id="CnuzjfT2MIIAcX5FWLCS-21" style="edgeStyle=orthogonalEdgeStyle;rounded=0;orthogonalLoop=1;jettySize=auto;html=1;exitX=0.5;exitY=1;exitDx=0;exitDy=0;exitPerimeter=0;" edge="1" parent="1" source="CnuzjfT2MIIAcX5FWLCS-11" target="CnuzjfT2MIIAcX5FWLCS-17">
          <mxGeometry relative="1" as="geometry" />
        </mxCell>
        <mxCell id="CnuzjfT2MIIAcX5FWLCS-11" value="&lt;div&gt;If user is owner&lt;/div&gt;&lt;div&gt;choose&lt;/div&gt;&lt;div&gt;&lt;br&gt;&lt;/div&gt;" style="strokeWidth=2;html=1;shape=mxgraph.flowchart.decision;whiteSpace=wrap;" vertex="1" parent="1">
          <mxGeometry x="30" y="430" width="100" height="100" as="geometry" />
        </mxCell>
        <mxCell id="CnuzjfT2MIIAcX5FWLCS-12" style="edgeStyle=orthogonalEdgeStyle;rounded=0;orthogonalLoop=1;jettySize=auto;html=1;exitX=0.25;exitY=1;exitDx=0;exitDy=0;entryX=0.5;entryY=0;entryDx=0;entryDy=0;entryPerimeter=0;" edge="1" parent="1" source="CnuzjfT2MIIAcX5FWLCS-4" target="CnuzjfT2MIIAcX5FWLCS-11">
          <mxGeometry relative="1" as="geometry" />
        </mxCell>
        <mxCell id="CnuzjfT2MIIAcX5FWLCS-15" value="Pick up pet" style="shape=parallelogram;html=1;strokeWidth=2;perimeter=parallelogramPerimeter;whiteSpace=wrap;rounded=1;arcSize=12;size=0.23;" vertex="1" parent="1">
          <mxGeometry x="10" y="600" width="100" height="60" as="geometry" />
        </mxCell>
        <mxCell id="CnuzjfT2MIIAcX5FWLCS-17" value="see pet" style="shape=parallelogram;html=1;strokeWidth=2;perimeter=parallelogramPerimeter;whiteSpace=wrap;rounded=1;arcSize=12;size=0.23;" vertex="1" parent="1">
          <mxGeometry x="180" y="490" width="100" height="60" as="geometry" />
        </mxCell>
        <mxCell id="CnuzjfT2MIIAcX5FWLCS-19" value="drop food off" style="shape=parallelogram;html=1;strokeWidth=2;perimeter=parallelogramPerimeter;whiteSpace=wrap;rounded=1;arcSize=12;size=0.23;" vertex="1" parent="1">
          <mxGeometry x="140" y="600" width="100" height="60" as="geometry" />
        </mxCell>
        <mxCell id="CnuzjfT2MIIAcX5FWLCS-22" value="end program" style="strokeWidth=2;html=1;shape=mxgraph.flowchart.terminator;whiteSpace=wrap;" vertex="1" parent="1">
          <mxGeometry x="100" y="730" width="100" height="60" as="geometry" />
        </mxCell>
        <mxCell id="CnuzjfT2MIIAcX5FWLCS-23" style="edgeStyle=orthogonalEdgeStyle;rounded=0;orthogonalLoop=1;jettySize=auto;html=1;exitX=1;exitY=0.5;exitDx=0;exitDy=0;entryX=1;entryY=0.5;entryDx=0;entryDy=0;entryPerimeter=0;" edge="1" parent="1" source="CnuzjfT2MIIAcX5FWLCS-17" target="CnuzjfT2MIIAcX5FWLCS-22">
          <mxGeometry relative="1" as="geometry" />
        </mxCell>
        <mxCell id="CnuzjfT2MIIAcX5FWLCS-24" style="edgeStyle=orthogonalEdgeStyle;rounded=0;orthogonalLoop=1;jettySize=auto;html=1;exitX=0.25;exitY=1;exitDx=0;exitDy=0;entryX=0.5;entryY=0;entryDx=0;entryDy=0;entryPerimeter=0;" edge="1" parent="1" source="CnuzjfT2MIIAcX5FWLCS-19" target="CnuzjfT2MIIAcX5FWLCS-22">
          <mxGeometry relative="1" as="geometry" />
        </mxCell>
        <mxCell id="CnuzjfT2MIIAcX5FWLCS-25" style="edgeStyle=orthogonalEdgeStyle;rounded=0;orthogonalLoop=1;jettySize=auto;html=1;exitX=0.25;exitY=1;exitDx=0;exitDy=0;entryX=0;entryY=0.5;entryDx=0;entryDy=0;entryPerimeter=0;" edge="1" parent="1" source="CnuzjfT2MIIAcX5FWLCS-15" target="CnuzjfT2MIIAcX5FWLCS-22">
          <mxGeometry relative="1" as="geometry" />
        </mxCell>
        <mxCell id="CnuzjfT2MIIAcX5FWLCS-26" value="Store pet data" style="strokeWidth=2;html=1;shape=mxgraph.flowchart.database;whiteSpace=wrap;" vertex="1" parent="1">
          <mxGeometry x="600" y="420" width="60" height="60" as="geometry" />
        </mxCell>
        <mxCell id="CnuzjfT2MIIAcX5FWLCS-28" value="end program" style="strokeWidth=2;html=1;shape=mxgraph.flowchart.terminator;whiteSpace=wrap;" vertex="1" parent="1">
          <mxGeometry x="390" y="570" width="100" height="60" as="geometry" />
        </mxCell>
        <mxCell id="CnuzjfT2MIIAcX5FWLCS-29" style="edgeStyle=orthogonalEdgeStyle;rounded=0;orthogonalLoop=1;jettySize=auto;html=1;exitX=0.5;exitY=1;exitDx=0;exitDy=0;entryX=0.5;entryY=0;entryDx=0;entryDy=0;entryPerimeter=0;" edge="1" parent="1" source="CnuzjfT2MIIAcX5FWLCS-8" target="CnuzjfT2MIIAcX5FWLCS-28">
          <mxGeometry relative="1" as="geometry" />
        </mxCell>
      </root>
    </mxGraphModel>
  </diagram>
</mxfile>
